<?xml version="1.0" standalone="no"?>
<!DOCTYPE svg PUBLIC "-//W3C//DTD SVG 20010904//EN"
 "http://www.w3.org/TR/2001/REC-SVG-20010904/DTD/svg10.dtd">
<svg version="1.0" xmlns="http://www.w3.org/2000/svg"
 width="700.000000pt" height="700.000000pt" viewBox="0 0 700.000000 700.000000"
 preserveAspectRatio="xMidYMid meet">
<metadata>
Created by potrace 1.14, written by Peter Selinger 2001-2017
</metadata>
<g transform="translate(0.000000,700.000000) scale(0.100000,-0.100000)"
fill="#000000" stroke="none">
<path d="M1998 4110 c-105 -19 -151 -41 -214 -104 -51 -51 -64 -72 -83 -131
-21 -68 -22 -82 -19 -395 l3 -325 28 -60 c67 -144 185 -209 377 -208 184 2
303 68 366 205 l29 63 0 345 0 345 -29 63 c-40 87 -116 155 -201 181 -76 24
-191 33 -257 21z m137 -303 c12 -18 15 -72 15 -308 0 -262 -2 -289 -18 -309
-11 -14 -29 -22 -47 -22 -18 0 -36 8 -47 22 -16 20 -18 47 -18 307 0 182 4
291 11 304 21 41 78 44 104 6z"/>
<path d="M4005 4113 c-163 -22 -278 -110 -321 -248 -21 -64 -32 -516 -16 -646
28 -224 135 -333 327 -333 96 1 166 26 223 80 25 24 47 44 49 44 2 0 3 -22 3
-50 l0 -50 105 0 105 0 0 325 0 325 -205 0 -205 0 0 -125 0 -125 35 0 35 0 0
-49 c0 -84 -62 -124 -113 -72 -22 21 -22 28 -22 311 0 283 0 290 22 311 28 28
72 28 95 -1 14 -17 18 -40 18 -96 l0 -74 170 0 170 0 0 78 c0 224 -114 361
-326 392 -70 10 -94 10 -149 3z"/>
<path d="M5822 4109 c-75 -13 -143 -51 -191 -105 -57 -65 -74 -129 -69 -253 7
-161 44 -220 237 -375 66 -53 129 -108 140 -122 28 -35 29 -99 2 -114 -28 -14
-38 -13 -61 10 -16 16 -20 33 -20 85 l0 65 -155 0 -155 0 0 -77 c0 -94 10
-134 50 -196 57 -90 175 -142 320 -140 120 1 188 28 262 103 67 69 88 125 88
240 0 159 -47 237 -234 389 -68 55 -134 113 -145 127 -44 56 -15 143 38 115
25 -14 31 -32 31 -97 l0 -54 151 0 152 0 -5 93 c-6 110 -30 167 -92 225 -75
69 -219 103 -344 81z"/>
<path d="M730 3500 l0 -590 208 0 c310 1 391 16 476 90 63 56 89 119 94 233 3
77 1 108 -13 144 -22 57 -65 106 -121 139 l-44 26 37 25 c76 51 103 108 103
218 0 93 -25 159 -81 212 -77 73 -178 93 -476 93 l-183 0 0 -590z m407 312
c20 -12 34 -64 27 -96 -10 -47 -32 -66 -76 -66 l-38 0 0 85 0 85 38 0 c20 0
42 -4 49 -8z m17 -454 c10 -14 16 -44 16 -80 0 -73 -21 -98 -80 -98 l-40 0 0
100 0 100 44 0 c35 0 48 -5 60 -22z"/>
<path d="M2705 4078 c-3 -7 -4 -272 -3 -588 l3 -575 165 0 165 0 5 269 5 269
49 -249 c26 -137 51 -259 53 -271 5 -23 7 -23 179 -23 159 0 174 1 174 18 0 9
-36 139 -79 287 -71 242 -78 271 -63 279 37 20 90 87 106 132 21 62 21 205 1
265 -36 106 -136 172 -285 189 -129 15 -469 13 -475 -2z m416 -277 c21 -17 24
-29 27 -98 4 -104 -16 -147 -70 -151 l-38 -3 0 135 0 136 29 0 c16 0 39 -9 52
-19z"/>
<path d="M4735 4078 c-3 -7 -4 -272 -3 -588 l3 -575 310 0 310 0 0 140 0 140
-148 3 -148 3 3 82 3 82 133 3 133 3 -3 137 -3 137 -132 3 -133 3 0 74 0 74
148 3 147 3 0 140 0 140 -308 3 c-241 2 -309 0 -312 -10z"/>
</g>
</svg>
